<svg id="svg" width="24" height="24" viewBox="0 0 24 24" xmlns="http://www.w3.org/2000/svg" xmlns:xlink="http://www.w3.org/1999/xlink">
  <g id="group2" transform="matrix(1,0,0,1,0.0198,-0.1208)">
    <path id="path1" d=" M 11.9802,1.547 C 10.5559,1.547 9.3906,2.7123 9.3906,4.1365 9.3906,5.5608 10.5559,6.7261 11.9802,6.7261 13.4045,6.7261 14.5698,5.5608 14.5698,4.1365 14.5698,2.7123 13.4045,1.547 11.9802,1.547 Z" style="fill:#000000;fill-opacity:1;stroke:#000000;stroke-width:1;stroke-opacity:1;stroke-linecap:butt;stroke-miterlimit:4;stroke-dashoffset:0;" />
    <path d=" M 11.9802,9.5312 C 10.5559,9.5312 9.3906,10.6966 9.3906,12.1208 9.3906,13.5451 10.5559,14.7104 11.9802,14.7104 13.4045,14.7104 14.5698,13.5451 14.5698,12.1208 14.5698,10.6966 13.4045,9.5312 11.9802,9.5312 Z" style="fill:#000000;fill-opacity:1;stroke:#000000;stroke-width:1;stroke-opacity:1;stroke-linecap:butt;stroke-miterlimit:4;stroke-dashoffset:0;" transform="matrix(1,0,0,1,0,0)" />
    <path d=" M 11.9802,17.5155 C 10.5559,17.5155 9.3906,18.6808 9.3906,20.1051 9.3906,21.5293 10.5559,22.6946 11.9802,22.6946 13.4045,22.6946 14.5698,21.5293 14.5698,20.1051 14.5698,18.6808 13.4045,17.5155 11.9802,17.5155 Z" style="fill:#000000;fill-opacity:1;stroke:#000000;stroke-width:1;stroke-opacity:1;stroke-linecap:butt;stroke-miterlimit:4;stroke-dashoffset:0;" />
  </g>
</svg>